<?xml version="1.0" encoding="utf-8"?>
<!-- Generator: Adobe Illustrator 22.0.1, SVG Export Plug-In . SVG Version: 6.00 Build 0)  -->
<svg version="1.1" xmlns="http://www.w3.org/2000/svg" xmlns:xlink="http://www.w3.org/1999/xlink" x="0px" y="0px"
	 viewBox="0 0 700 700" style="enable-background:new 0 0 700 700;" xml:space="preserve">
<style type="text/css">
	.st0{fill:#FFFFFF;}
</style>
<g id="Layer_2">
	<circle class="st0" cx="350" cy="350" r="350"/>
</g>
<g id="Layer_1">
	<g transform="translate(0.000000,700.000000) scale(0.100000,-0.100000)">
		<path d="M3387,6124c-1-1-42-5-92-8c-49-3-99-8-111-10s-45-7-75-11c-30-3-61-8-69-10s-29-7-47-10c-66-11-203-46-293-75
			c-792-255-1423-878-1689-1668c-22-65-43-133-46-152c-3-18-8-36-10-40s-7-22-10-41s-10-50-15-69c-8-32-27-139-36-200
			c-22-169-22-533,2-670c2-14,7-41,10-60c61-384,195-729,410-1052c47-71,91-134,97-141c7-6,38-43,69-82c141-174,389-397,567-510
			c9-6,36-23,60-39c332-214,768-359,1181-392c159-13,426-7,530,11c14,2,45,7,70,10c320,44,643,160,965,348c39,23,72,44,75,47
			s19,14,35,24c17,11,66,46,110,79c425,319,754,776,916,1272c26,78,36,112,55,185c14,51,53,262,58,309c16,147,19,196,19,321
			c0,124-9,294-19,344c-2,11-6,38-9,61c-47,334-199,739-379,1008c-25,38-46,70-46,73c0,8-150,201-202,259c-229,256-485,454-782,605
			c-312,158-616,245-965,276C3656,6122,3392,6128,3387,6124z M3735,5676c28-4,75-11,105-16s71-12,90-15c254-42,599-191,831-358
			c133-95,165-123,284-242c118-118,147-152,238-279c174-241,319-577,362-836c3-19,10-60,16-90c33-182,30-536-6-715c-2-11-9-45-15-75
			c-42-217-142-471-268-684c-164-275-432-545-722-726c-201-126-521-253-720-285c-19-3-60-10-91-15c-185-33-506-32-694,2
			c-157,28-320,72-434,117c-117,47-265,119-313,152c-14,11-29,19-33,19c-14,0-199,134-284,205c-193,162-369,379-497,610
			c-143,258-236,560-262,845c-6,76-8,311-2,385c64,847,631,1590,1435,1882c68,25,179,59,220,69c82,18,243,44,305,50c41,3,76,7,77,9
			C3363,5690,3690,5682,3735,5676z"/>
	</g>
</g>
</svg>
