<?xml version="1.0" standalone="no"?>
<!DOCTYPE svg PUBLIC "-//W3C//DTD SVG 20010904//EN"
 "http://www.w3.org/TR/2001/REC-SVG-20010904/DTD/svg10.dtd">
<svg version="1.0" xmlns="http://www.w3.org/2000/svg"
 width="700.000000pt" height="700.000000pt" viewBox="0 0 700.000000 700.000000"
 preserveAspectRatio="xMidYMid meet">
<metadata>
Created by potrace 1.11, written by Peter Selinger 2001-2013
</metadata>
<g transform="translate(0.000000,700.000000) scale(0.100000,-0.100000)"
fill="#000000" stroke="none">
<path d="M3387 6124 c-1 -1 -42 -5 -92 -8 -49 -3 -99 -8 -111 -10 -12 -2 -45
-7 -75 -11 -30 -3 -61 -8 -69 -10 -8 -2 -29 -7 -47 -10 -66 -11 -203 -46 -293
-75 -792 -255 -1423 -878 -1689 -1668 -22 -65 -43 -133 -46 -152 -3 -18 -8
-36 -10 -40 -2 -4 -7 -22 -10 -41 -3 -19 -10 -50 -15 -69 -8 -32 -27 -139 -36
-200 -22 -169 -22 -533 2 -670 2 -14 7 -41 10 -60 61 -384 195 -729 410 -1052
47 -71 91 -134 97 -141 7 -6 38 -43 69 -82 141 -174 389 -397 567 -510 9 -6
36 -23 60 -39 332 -214 768 -359 1181 -392 159 -13 426 -7 530 11 14 2 45 7
70 10 320 44 643 160 965 348 39 23 72 44 75 47 3 3 19 14 35 24 17 11 66 46
110 79 425 319 754 776 916 1272 26 78 36 112 55 185 14 51 53 262 58 309 16
147 19 196 19 321 0 124 -9 294 -19 344 -2 11 -6 38 -9 61 -47 334 -199 739
-379 1008 -25 38 -46 70 -46 73 0 8 -150 201 -202 259 -229 256 -485 454 -782
605 -312 158 -616 245 -965 276 -65 6 -329 12 -334 8z m348 -448 c28 -4 75
-11 105 -16 30 -5 71 -12 90 -15 254 -42 599 -191 831 -358 133 -95 165 -123
284 -242 118 -118 147 -152 238 -279 174 -241 319 -577 362 -836 3 -19 10 -60
16 -90 33 -182 30 -536 -6 -715 -2 -11 -9 -45 -15 -75 -42 -217 -142 -471
-268 -684 -164 -275 -432 -545 -722 -726 -201 -126 -521 -253 -720 -285 -19
-3 -60 -10 -91 -15 -185 -33 -506 -32 -694 2 -157 28 -320 72 -434 117 -117
47 -265 119 -313 152 -14 11 -29 19 -33 19 -14 0 -199 134 -284 205 -193 162
-369 379 -497 610 -143 258 -236 560 -262 845 -6 76 -8 311 -2 385 64 847 631
1590 1435 1882 68 25 179 59 220 69 82 18 243 44 305 50 41 3 76 7 77 9 6 5
333 -3 378 -9z"/>
</g>
</svg>
